<svg id="visual" viewBox="0 0 4000 200" width="4000" height="200" xmlns="http://www.w3.org/2000/svg" xmlns:xlink="http://www.w3.org/1999/xlink" version="1.1"><path d="M0 144L21.5 138.8C43 133.7 86 123.3 129 132.2C172 141 215 169 258 175.7C301 182.3 344 167.7 387 151.8C430 136 473 119 516 116.3C559 113.7 602 125.3 645 141.3C688 157.3 731 177.7 774 177C817 176.3 860 154.7 903 151.7C946 148.7 989 164.3 1032 163C1075 161.7 1118 143.3 1161 131.5C1204 119.7 1247 114.3 1290 122.8C1333 131.3 1376 153.7 1419 161.3C1462 169 1505 162 1548 151.7C1591 141.3 1634 127.7 1677 124.2C1720 120.7 1763 127.3 1806 133.5C1849 139.7 1892 145.3 1935.2 143.3C1978.3 141.3 2021.7 131.7 2064.8 131C2108 130.3 2151 138.7 2194 151.3C2237 164 2280 181 2323 183.5C2366 186 2409 174 2452 160.3C2495 146.7 2538 131.3 2581 137.2C2624 143 2667 170 2710 178.5C2753 187 2796 177 2839 161C2882 145 2925 123 2968 122.3C3011 121.7 3054 142.3 3097 147.3C3140 152.3 3183 141.7 3226 146.8C3269 152 3312 173 3355 176.7C3398 180.3 3441 166.7 3484 152.5C3527 138.3 3570 123.7 3613 130C3656 136.3 3699 163.7 3742 169.5C3785 175.3 3828 159.7 3871 160.7C3914 161.7 3957 179.3 3978.5 188.2L4000 197L4000 201L3978.5 201C3957 201 3914 201 3871 201C3828 201 3785 201 3742 201C3699 201 3656 201 3613 201C3570 201 3527 201 3484 201C3441 201 3398 201 3355 201C3312 201 3269 201 3226 201C3183 201 3140 201 3097 201C3054 201 3011 201 2968 201C2925 201 2882 201 2839 201C2796 201 2753 201 2710 201C2667 201 2624 201 2581 201C2538 201 2495 201 2452 201C2409 201 2366 201 2323 201C2280 201 2237 201 2194 201C2151 201 2108 201 2064.8 201C2021.7 201 1978.3 201 1935.2 201C1892 201 1849 201 1806 201C1763 201 1720 201 1677 201C1634 201 1591 201 1548 201C1505 201 1462 201 1419 201C1376 201 1333 201 1290 201C1247 201 1204 201 1161 201C1118 201 1075 201 1032 201C989 201 946 201 903 201C860 201 817 201 774 201C731 201 688 201 645 201C602 201 559 201 516 201C473 201 430 201 387 201C344 201 301 201 258 201C215 201 172 201 129 201C86 201 43 201 21.5 201L0 201Z" fill="#F3EFD1" stroke-linecap="round" stroke-linejoin="miter"></path></svg>