<svg id="visual" viewBox="0 0 4000 100" width="4000" height="100" xmlns="http://www.w3.org/2000/svg" xmlns:xlink="http://www.w3.org/1999/xlink" version="1.1"><path d="M0 30L22.2 35.7C44.3 41.3 88.7 52.7 133.2 56C177.7 59.3 222.3 54.7 266.8 58.2C311.3 61.7 355.7 73.3 400 71.8C444.3 70.3 488.7 55.7 533.2 55.5C577.7 55.3 622.3 69.7 666.8 77C711.3 84.3 755.7 84.7 800 83.5C844.3 82.3 888.7 79.7 933.2 75.2C977.7 70.7 1022.3 64.3 1066.8 61.5C1111.3 58.7 1155.7 59.3 1200 64.2C1244.3 69 1288.7 78 1333.2 73.7C1377.7 69.3 1422.3 51.7 1466.8 50.3C1511.3 49 1555.7 64 1600 69.3C1644.3 74.7 1688.7 70.3 1733.2 70.5C1777.7 70.7 1822.3 75.3 1866.8 75.8C1911.3 76.3 1955.7 72.7 2000 73.3C2044.3 74 2088.7 79 2133.2 71.5C2177.7 64 2222.3 44 2266.8 42.5C2311.3 41 2355.7 58 2400 64.2C2444.3 70.3 2488.7 65.7 2533.2 57.8C2577.7 50 2622.3 39 2666.8 40.8C2711.3 42.7 2755.7 57.3 2800 60.8C2844.3 64.3 2888.7 56.7 2933.2 59.2C2977.7 61.7 3022.3 74.3 3066.8 79.2C3111.3 84 3155.7 81 3200 73.3C3244.3 65.7 3288.7 53.3 3333.2 55.2C3377.7 57 3422.3 73 3466.8 79.8C3511.3 86.7 3555.7 84.3 3600 76.5C3644.3 68.7 3688.7 55.3 3733.2 45.2C3777.7 35 3822.3 28 3866.8 33.2C3911.3 38.3 3955.7 55.7 3977.8 64.3L4000 73L4000 101L3977.8 101C3955.7 101 3911.3 101 3866.8 101C3822.3 101 3777.7 101 3733.2 101C3688.7 101 3644.3 101 3600 101C3555.7 101 3511.3 101 3466.8 101C3422.3 101 3377.7 101 3333.2 101C3288.7 101 3244.3 101 3200 101C3155.7 101 3111.3 101 3066.8 101C3022.3 101 2977.7 101 2933.2 101C2888.7 101 2844.3 101 2800 101C2755.7 101 2711.3 101 2666.8 101C2622.3 101 2577.7 101 2533.2 101C2488.7 101 2444.3 101 2400 101C2355.7 101 2311.3 101 2266.8 101C2222.3 101 2177.7 101 2133.2 101C2088.7 101 2044.3 101 2000 101C1955.7 101 1911.3 101 1866.8 101C1822.3 101 1777.7 101 1733.2 101C1688.7 101 1644.3 101 1600 101C1555.7 101 1511.3 101 1466.8 101C1422.3 101 1377.7 101 1333.2 101C1288.7 101 1244.3 101 1200 101C1155.7 101 1111.3 101 1066.8 101C1022.3 101 977.7 101 933.2 101C888.7 101 844.3 101 800 101C755.7 101 711.3 101 666.8 101C622.3 101 577.7 101 533.2 101C488.7 101 444.3 101 400 101C355.7 101 311.3 101 266.8 101C222.3 101 177.7 101 133.2 101C88.7 101 44.3 101 22.2 101L0 101Z" fill="#FAF8EA" stroke-linecap="round" stroke-linejoin="miter"></path></svg>